<?xml version="1.0" encoding="UTF-8"?>
<svg id="Calque_2" data-name="Calque 2" xmlns="http://www.w3.org/2000/svg" xmlns:xlink="http://www.w3.org/1999/xlink" viewBox="0 0 1285.64 1152.76">
  <defs>
    <style>
      .cls-1 {
        fill: url(#Dégradé_sans_nom_64);
      }
    </style>
    <linearGradient id="Dégradé_sans_nom_64" data-name="Dégradé sans nom 64" x1="1130.72" y1="115.34" x2="304.42" y2="1320.82" gradientUnits="userSpaceOnUse">
      <stop offset="0" stop-color="#2563eb"/>
      <stop offset="1" stop-color="#22386d"/>
    </linearGradient>
  </defs>
  <g id="Calque_1-2" data-name="Calque 1">
    <path class="cls-1" d="M851.4,36.58c-5.15-19.82-23.59-33.66-45-33.66l-404.55,1.16c-20.62.06-38.83,13.55-44.29,32.83-4.6,16.23.09,33.59,12.26,45.31,7.38,7.1,17.56,11.53,28.68,12.49l30.81,2.64c9.59.81,19.65.51,30.3.19,25.92-.75,52.72-1.56,71.74,14.45,14.18,11.93,15.6,72.01-58.14,290.48-3.01,8.91-4.82,14.3-5.34,16.2-6.16,22.88-23.64,69.62-50.15,99.66-13.26,15.03-34.78,30.17-55.59,44.82-6.04,4.26-11.95,8.41-17.45,12.43-19.02,13.9-56.54,38.12-96.27,63.77-52.75,34.06-107.3,69.27-128.73,86.79-56,45.78-96.01,105.98-112.67,169.5-11.37,43.34-8.94,84.17,7.42,124.81,13.08,32.52,33.68,61.33,59.55,83.33,34.33,29.18,77.26,45.69,120.9,46.5,38.69.58,91.16-16,134.64-42.76,24.42,27.64,58.08,42.8,95.21,42.8,89.27,0,158.92-77.7,212.71-237.17,3.78-8.68,6.91-20.28,16.78-23.53,9.17-3.02,18.54-1.39,27.92-1.15,10.55.27,21.5.05,32.14-.08,18.66-.24,38.56-8.04,39.38-29.6.32-8.32-2.68-16.19-8.44-22.16-5.68-5.9-13.65-9.26-21.83-9.24l-161.71.43c-13.52.03-25.28,8.47-29.26,20.99-2.82,8.86-1.49,18.36,3.64,26.06,3.97,5.95,9.78,10.29,15.93,11.9,4.14,1.1,13.15,1.06,23.63.92,3.98-.05,26.32-1.53,21.7,7.6-1.1,2.17-6.06,15.63-7.28,17.86-25.62,58.26-86.92,138.59-126.39,138.59-11.74,0-15.06-4.26-16.31-5.86-12.38-15.86-.52-85.3,6.78-114.52l165.22-643.92c3.72-14.5,7.3-29.04,10.89-43.61,6-24.35,12.2-49.52,18.97-73.96,8.57-30.94,24.29-50.88,48.09-60.98,4.42-1.88,9.03-3.46,13.71-4.71,18.22-4.87,37.55-6.14,58-7.49,7.35-.49,14.67-.97,21.95-1.62l19.71-1.8c9.46-.86,18.03-4.12,24.8-9.42,14.26-11.19,20.53-29.75,15.97-47.3ZM330.36,777.8c-3.28,12.75-6.85,25.83-10.36,38.67-9.75,35.68-38.93,156.91-11.62,239.63-7.96,2-25.92,5.72-29.57,6.34-56.98,9.63-114.6-25.94-137.02-84.55-40.59-106.15,77.36-215.62,140.73-274.42,20.45-18.98,72.34-62.91,95.63-82.54l-47.79,156.88ZM1268.94,83.72c-14.35,10.99-33.03,12.04-49.51,12.97l-1.21.07c-14.59.82-29.66.3-44.23-.19-30.18-1.04-61.38-2.09-89.2,8.8-36.75,14.39-62.07,47.23-86.89,82.48-82.68,117.45-173.45,240-293.46,334.19-.85.67-2.96,2.54-5.56,4.86-1.14,1.01-2.21,1.95-3.21,2.84,5.46.06,9.97.1,9.97.1,61.05,4.27,136.85,34.87,180.62,72.77,101.99,88.33,140.41,213.31,177.57,334.18,4.61,14.99,9.22,30,13.97,45,10.38,32.81,19.09,56.8,36.7,66.65,25.22,14.1,58.18,17.19,99.91,17.49,10.45.08,32.18.24,45.6,19.03,7.06,9.89,9.64,23.41,6.89,36.18-2.51,11.67-8.96,21.05-18.16,26.41-7.84,4.56-63.82,5.24-96.15,5.24-13.29,0-22.58-.11-22.9-.12-30.56-.45-61.94-.92-93.82-.4-11.36.16-39-.81-49.38-14.13-12.51-16.06-13.92-39.56-3.37-55.86,2.32-3.59,4.95-6.81,7.5-9.93,2.4-2.94,4.66-5.72,6.58-8.66,3.45-5.31,7.79-13.07,5.66-19.2l-.23-.65c-16.13-46.53-38.22-110.26-61.62-152.5-15.21-27.46-33.55-59.86-54.27-91.89-43.43-67.14-85.05-113.93-130.96-147.25-27.28-19.79-56.23-34.58-86.06-43.96-4.93-1.55-12.68-2.73-20.89-3.99-27.1-4.14-68.05-10.39-65.7-42.33,1.25-16.88,12.99-29.96,22.42-40.47,74.5-82.99,142.91-173.58,209.07-261.19,25.17-33.33,51-67.54,75.51-101.8,22.9-32.01,29.01-55.02,19.26-72.43-2.34-4.17-5.68-8.05-9.23-12.17-6.66-7.72-13.54-15.71-14.83-26.86-.93-8.01,1.54-16.64,6.78-23.7,13.04-17.59,36.41-20.24,59.71-20.48L1218.93.03c14.17-.11,31.79-.33,46.31,8.68,4.16,2.57,7.81,5.92,10.86,9.96h0c15.18,20.11,11.83,50.51-7.16,65.06Z"/>
  </g>
</svg>